<?xml version="1.0" encoding="utf-8"?>
<!-- Generator: Adobe Illustrator 25.2.3, SVG Export Plug-In . SVG Version: 6.00 Build 0)  -->
<svg version="1.1" xmlns="http://www.w3.org/2000/svg" xmlns:xlink="http://www.w3.org/1999/xlink" x="0px" y="0px"
	 viewBox="0 0 595.3 841.9" style="enable-background:new 0 0 595.3 841.9;" xml:space="preserve">
<style type="text/css">
	.st0{stroke:#000000;stroke-miterlimit:10;}
	.st1{stroke:#332B28;stroke-miterlimit:10;}
</style>
<g id="Calque_1">
	<g>
		<g>
			<path class="st0" d="M321.1,0c-117.1,0-212,82.1-212,183.3v658.6h424V183.3C533.1,82.1,438.2,0,321.1,0z M501.3,814.3H140.9
				V198.9c0-94.6,80.7-171.3,180.2-171.3s180.2,76.7,180.2,171.3V814.3z"/>
		</g>
	</g>
</g>
<g id="Calque_2">
	<g>
		<g>
			<path class="st1" d="M399.8,128.5c-5.5-1-11-1.2-16.4-0.9c31.1,12.9,50.4,44.8,44.7,77.8s-34.8,56.5-68.4,58
				c4.9,2.1,10.2,3.7,15.7,4.7c38.6,6.7,75.3-19,82-57.6C464.2,171.9,438.4,135.2,399.8,128.5z"/>
		</g>
	</g>
</g>
</svg>
